<svg version="1.1" xmlns="http://www.w3.org/2000/svg" style="display: block;" viewBox="0 0 2048 2048" width="1024" height="1024" preserveAspectRatio="none">
<defs>
	<linearGradient id="Gradient1" gradientUnits="userSpaceOnUse" x1="945.634" y1="1409.87" x2="909.358" y2="1374.14">
		<stop class="stop0" offset="0" stop-opacity="1" stop-color="rgb(6,0,57)"/>
		<stop class="stop1" offset="1" stop-opacity="1" stop-color="rgb(39,9,96)"/>
	</linearGradient>
</defs>
<path transform="translate(0,0)" fill="rgb(0,0,0)" d="M 0 0 L 2048 0 L 2048 2048 L 0 2048 L 0 0 z"/>
<path transform="translate(0,0)" fill="rgb(170,97,237)" d="M 1045.68 1131.58 C 1048.77 1133.94 1052.7 1136.31 1056.02 1138.43 C 1065.2 1144.25 1078.98 1152.51 1087.22 1158.85 C 1090.73 1167.3 1093.3 1175.92 1096.23 1184.57 C 1111.58 1229.9 1126.48 1275.37 1141.29 1320.88 C 1143.53 1327.77 1145.55 1334.42 1147.37 1341.44 C 1130.02 1351.81 1109.75 1360.8 1091.37 1369.66 L 984.036 1420.4 L 930.361 1446.59 C 927.105 1448.16 912.212 1455.63 909.906 1456.35 L 913.9 1444.98 L 910.098 1445.41 C 925.698 1395.82 939.018 1344.75 954.163 1294.87 C 955.531 1311.66 942.123 1329.08 944.057 1341.86 C 947.47 1340.17 948.471 1331.61 949.701 1328.15 C 954.39 1314.96 958.25 1299.52 965.613 1287.62 L 966.157 1286.75 L 988.535 1218.8 C 993.499 1203.49 1000.88 1175.61 1009.24 1163.32 C 1021.77 1157.33 1031 1153.24 1043.03 1146.04 C 1036.53 1144.31 1032.13 1142.74 1025.82 1140.4 C 1030.72 1137.78 1040.28 1133.94 1045.68 1131.58 z"/>
<path transform="translate(0,0)" fill="url(#Gradient1)" d="M 954.163 1294.87 C 955.531 1311.66 942.123 1329.08 944.057 1341.86 C 947.47 1340.17 948.471 1331.61 949.701 1328.15 C 954.39 1314.96 958.25 1299.52 965.613 1287.62 L 966.157 1286.75 C 962.82 1298.64 958.375 1312.14 954.022 1323.79 C 939.298 1363.18 929.015 1405.94 913.9 1444.98 L 910.098 1445.41 C 925.698 1395.82 939.018 1344.75 954.163 1294.87 z"/>
<path transform="translate(0,0)" fill="rgb(217,252,33)" d="M 1162.09 585.893 C 1169.12 581.98 1175.88 580.557 1182.68 575.89 L 1183.45 575.946 C 1181.23 582.422 1179.2 588.513 1177.27 595.074 C 1175.27 600.488 1173.43 605.808 1171.61 611.287 C 1156.79 656.017 1139.66 700.226 1124.64 744.844 C 1117.03 767.47 1109.11 789.986 1100.86 812.386 C 1097.52 821.708 1092 844.869 1084.2 849.341 C 1077.73 854.217 1071.35 858.274 1063.97 861.704 C 1057.62 866.019 1046.53 870.888 1039.34 873.916 C 1028.93 869.518 1013.3 861.615 1003.72 855.918 C 992.545 821.882 982.625 786.267 969.218 753.022 C 961.176 733.082 949.085 712.087 938.696 693.003 C 945.965 688.223 957.065 683.813 965.212 680.034 C 977.976 674.002 990.706 667.897 1003.4 661.718 C 1056.16 636.162 1109.06 610.886 1162.09 585.893 z"/>
<path transform="translate(0,0)" fill="rgb(215,247,91)" d="M 1162.09 585.893 C 1169.12 581.98 1175.88 580.557 1182.68 575.89 L 1183.45 575.946 C 1181.23 582.422 1179.2 588.513 1177.27 595.074 C 1169.8 593.941 1166.67 591.408 1162.09 585.893 z"/>
<path transform="translate(0,0)" fill="rgb(215,247,91)" d="M 1063.97 861.704 L 1063.95 858.946 C 1066.82 853.019 1077.42 847.315 1084.2 849.341 C 1077.73 854.217 1071.35 858.274 1063.97 861.704 z"/>
<path transform="translate(0,0)" fill="rgb(170,97,237)" d="M 989.017 1173.54 C 976.36 1211.52 965.687 1255.71 954.163 1294.87 C 939.018 1344.75 925.698 1395.82 910.098 1445.41 L 913.9 1444.98 L 909.906 1456.35 C 908.444 1457.18 907.283 1457.6 906.236 1458.75 L 905.293 1458.26 C 880.917 1468.33 849.173 1484.79 825.092 1496.72 C 798.592 1509.76 771.847 1522.29 744.871 1534.32 C 731.415 1540.36 717.533 1549.18 703.48 1552.3 C 728.749 1510.27 754.815 1468.72 781.665 1427.68 C 785.321 1422.04 799.392 1399.13 803.064 1395.84 C 804.876 1390.55 825.393 1358.9 829.403 1352.99 C 831.754 1347.2 856.343 1310.65 861.876 1302.02 C 881.581 1271.51 901.036 1240.81 920.397 1210.08 C 922.189 1207.24 925.137 1203.17 927.99 1201.61 C 946.326 1191.57 969.352 1180.26 989.017 1173.54 z"/>
<path transform="translate(0,0)" fill="rgb(160,103,223)" d="M 803.064 1395.84 C 804.876 1390.55 825.393 1358.9 829.403 1352.99 C 825.749 1364.11 831.152 1363.82 829.157 1371.76 L 827.897 1372.13 C 820.045 1374.52 815.795 1376.88 811.949 1384.58 C 810.254 1387.97 815.35 1396.03 814.937 1401.18 L 813.118 1401.65 C 810.623 1399.06 810.667 1393.96 809.982 1389.66 C 806.998 1390.59 807.231 1393.34 803.064 1395.84 z"/>
<path transform="translate(0,0)" fill="rgb(0,0,0)" d="M 910.098 1445.41 L 913.9 1444.98 L 909.906 1456.35 C 908.444 1457.18 907.283 1457.6 906.236 1458.75 L 905.293 1458.26 C 907.012 1455.04 908.831 1449.07 910.098 1445.41 z"/>
<path transform="translate(0,0)" fill="rgb(217,252,33)" d="M 1186.89 573.091 C 1193.72 569.407 1204.69 565.199 1212.48 561.497 L 1270.71 533.342 C 1295.52 521.354 1332.93 501.271 1356.97 491.753 C 1357.11 504.956 1357.99 527.673 1356.92 540.108 C 1355.2 545.675 1321.17 590.342 1315.18 598.623 L 1265.41 668.358 C 1228.36 720.351 1192.02 772.943 1155.1 825.035 C 1151.87 829.583 1148.11 834.444 1144.06 838.279 C 1137.35 839.218 1132.28 839.466 1125.49 839.763 C 1124.23 829.123 1120.44 807.58 1117.74 797.111 C 1130.72 748.308 1148.77 697.549 1163.3 648.92 C 1166.54 638.072 1180.34 588.689 1184.25 581.929 L 1186.89 573.091 z"/>
<path transform="translate(0,0)" fill="rgb(215,247,91)" d="M 1186.89 573.091 C 1193.72 569.407 1204.69 565.199 1212.48 561.497 L 1270.71 533.342 C 1295.52 521.354 1332.93 501.271 1356.97 491.753 C 1357.11 504.956 1357.99 527.673 1356.92 540.108 C 1349.11 529.003 1370.6 491.75 1325.05 515.825 C 1308.84 524.395 1294.06 529.575 1280.22 542.618 C 1258.68 544.542 1264.34 547.48 1246.07 558.842 C 1241.03 560.756 1235.8 561.812 1230.73 563.72 C 1224.59 566.03 1217.07 572.228 1211.56 574.314 C 1206.79 576.12 1189.25 581.294 1184.25 581.929 L 1186.89 573.091 z"/>
<path transform="translate(0,0)" fill="rgb(217,252,33)" d="M 692.327 890.055 L 693.008 889.547 C 709.995 897.273 732.264 902.015 750.116 909.336 C 779.093 917.335 811.633 929.232 840.625 938.479 C 860.039 944.671 896.485 955.295 914.187 963.459 C 930.581 967.721 935.591 973.711 942.155 989.332 C 938.813 995.804 933.315 1007.25 929.379 1012.87 C 922.112 1026.14 913.082 1044.91 905.682 1056.97 C 896.825 1061.83 868.066 1078.45 860.142 1079.52 C 852.795 1078.01 829.007 1068.97 821.131 1065.99 C 810.01 1061.8 789.035 1054.8 778.956 1049.71 C 773.366 1048.96 717.109 1027.15 708.147 1023.83 C 703.176 1022.25 697.827 1019.93 692.946 1017.97 C 692.401 978.558 695.534 928.698 692.327 890.055 z"/>
<path transform="translate(0,0)" fill="rgb(215,247,91)" d="M 692.327 890.055 L 693.008 889.547 C 709.995 897.273 732.264 902.015 750.116 909.336 C 742.773 910.547 721.419 900.123 711.711 899.799 L 712.719 900.112 C 717.782 901.723 721.713 903.443 726.584 905.533 C 722.172 904.286 713.09 901.065 709.336 901.705 C 700.958 908.11 705.58 942.578 705.462 953.48 C 705.202 977.468 703.413 1000.21 708.147 1023.83 C 703.176 1022.25 697.827 1019.93 692.946 1017.97 C 692.401 978.558 695.534 928.698 692.327 890.055 z"/>
<path transform="translate(0,0)" fill="rgb(215,247,91)" d="M 778.956 1049.71 C 789.062 1048.63 821.109 1066.9 827.484 1064.91 L 824.595 1062.24 C 837.377 1062.61 842.053 1064.4 852.202 1071.48 L 852.608 1072.42 L 848.594 1073.61 C 853.144 1075 856.969 1075.83 860.142 1079.52 C 852.795 1078.01 829.007 1068.97 821.131 1065.99 C 810.01 1061.8 789.035 1054.8 778.956 1049.71 z"/>
<path transform="translate(0,0)" fill="rgb(170,97,237)" d="M 1132.56 1079.89 C 1132.77 1076.97 1132.67 1072.54 1134.94 1070.74 C 1141.76 1065.37 1161.88 1064.55 1170.43 1064.39 C 1182.32 1070.65 1194.37 1076.6 1206.56 1082.22 C 1226.95 1091.48 1350.83 1144.62 1358.27 1152.29 C 1361.56 1166.32 1358.26 1224.15 1358.68 1242.52 C 1329.56 1256.76 1293.05 1271.58 1265.61 1286.5 C 1238.08 1251.45 1213.69 1212.85 1186.9 1177.16 C 1184.26 1173.64 1180.71 1168.66 1178.62 1164.84 C 1172 1157.14 1148.95 1124.77 1143.33 1116.01 C 1135.15 1108.43 1131.98 1100.61 1131.95 1089.79 L 1132.56 1079.89 z"/>
<path transform="translate(0,0)" fill="rgb(160,103,223)" d="M 1143.33 1116.01 C 1156.49 1118.24 1157.8 1135.47 1168.26 1140.88 C 1171.8 1142.71 1172.61 1144.06 1173.62 1148.19 C 1174.44 1154.28 1177.25 1159.96 1178.62 1164.84 C 1172 1157.14 1148.95 1124.77 1143.33 1116.01 z"/>
<path transform="translate(0,0)" fill="rgb(160,103,223)" d="M 1132.56 1079.89 C 1136.09 1078.07 1135.94 1077.31 1138.84 1078.05 C 1138.37 1082.4 1133.86 1085.71 1131.95 1089.79 L 1132.56 1079.89 z"/>
<path transform="translate(0,0)" fill="rgb(170,97,237)" d="M 693.91 1308.24 C 717.303 1295.13 757.854 1278.13 783.044 1266.25 L 854.097 1233.1 C 867.422 1227.02 881.029 1220.3 894.894 1215.79 C 887.795 1225.82 882.181 1237.04 875.611 1247.36 C 863.861 1265.82 852.704 1284.33 841.519 1303.13 C 832.994 1316.58 824.046 1330.36 815.969 1344.05 C 808.227 1358.93 798.235 1374.71 789.501 1389.22 L 748.553 1457.69 C 738.876 1474.03 729.592 1490.81 720.019 1507.22 C 714.2 1517.19 708.332 1529.1 701.682 1538.49 C 699.726 1541.95 696.752 1545.98 697.324 1549.79 L 694.932 1552.15 C 692.92 1545.55 694.231 1482.6 694.853 1473.59 C 694.155 1468.08 694.294 1435.6 694.339 1428.54 C 694.6 1387.99 695.007 1348.88 693.91 1308.24 z"/>
<path transform="translate(0,0)" fill="rgb(160,103,223)" d="M 815.969 1344.05 C 815.56 1343.33 815.309 1342.39 815.031 1341.57 C 815.825 1339.91 816.468 1338.61 817.369 1336.98 L 818.127 1335.64 C 817.961 1335.26 817.795 1334.87 817.629 1334.49 L 816.921 1332.79 C 815.316 1328.97 813.841 1326.05 816.625 1322.26 L 820.276 1321.83 C 822.31 1317.37 818.529 1314.9 820.19 1309.66 L 821.773 1309.5 C 825.01 1312.65 825.25 1313.14 829.322 1314.78 C 841.216 1313.03 833.136 1298.63 834.205 1296.39 C 836.755 1298.63 839.059 1300.79 841.519 1303.13 C 832.994 1316.58 824.046 1330.36 815.969 1344.05 z"/>
<path transform="translate(0,0)" fill="rgb(160,103,223)" d="M 694.932 1552.15 C 692.92 1545.55 694.231 1482.6 694.853 1473.59 C 695.002 1475.51 695.808 1488.35 695.854 1488.44 C 700.54 1498.34 697.511 1532.19 701.682 1538.49 C 699.726 1541.95 696.752 1545.98 697.324 1549.79 L 694.932 1552.15 z"/>
<path transform="translate(0,0)" fill="rgb(217,252,33)" d="M 693.195 810.997 C 725.726 794.04 762.916 779.651 795.89 761.679 C 807.172 771.971 817.561 783.337 828.307 794.215 C 850.448 816.487 872.378 838.967 894.094 861.653 C 897.664 865.346 917.549 884.905 919.184 887.931 C 922.759 890.518 925.919 894.39 928.926 897.712 C 930.007 908.288 934.061 925.129 936.033 936.526 C 929.748 942.973 924.615 948.313 915.041 944.548 C 848.125 918.24 778.735 897.503 711.243 872.692 C 704.797 870.738 699.815 869.33 693.662 866.559 C 693.55 851.092 694.814 824.951 693.195 810.997 z"/>
<path transform="translate(0,0)" fill="rgb(217,252,33)" d="M 1357.97 554.879 C 1357.59 562.23 1357.81 570.946 1357.81 578.404 L 1357.15 686.973 C 1357.19 711.925 1357.97 738.296 1357.46 763.073 C 1347.17 769.554 1309.72 786.736 1296.76 792.362 C 1262.26 807.344 1224.91 827.224 1190.85 841.557 C 1178.34 846.91 1167.71 852.525 1154.6 857.241 L 1179.64 821.313 C 1183.28 814.704 1194.24 799.505 1198.94 792.528 L 1236.31 736.409 C 1258.07 703.238 1280.03 670.191 1302.17 637.271 C 1313.57 620.053 1326.48 599.248 1338.29 582.662 C 1343.16 573.966 1351.76 562.735 1357.97 554.879 z"/>
<path transform="translate(0,0)" fill="rgb(223,238,151)" d="M 1179.64 821.313 C 1179.43 826.927 1176.63 829.337 1172.97 834.352 C 1175.66 839.493 1177.54 843.098 1180.81 847.982 C 1180.87 845.029 1180.77 830.393 1181.69 828.924 C 1183.32 832.601 1184.23 834.8 1185.47 838.613 C 1187.66 840.588 1188.03 840.482 1190.85 841.557 C 1178.34 846.91 1167.71 852.525 1154.6 857.241 L 1179.64 821.313 z"/>
<path transform="translate(0,0)" fill="rgb(215,247,91)" d="M 1357.97 554.879 C 1357.59 562.23 1357.81 570.946 1357.81 578.404 L 1356.49 583.434 L 1355.98 582.804 L 1356.76 581.511 L 1355.14 582.119 C 1348.73 575.056 1344.71 578.436 1338.29 582.662 C 1343.16 573.966 1351.76 562.735 1357.97 554.879 z"/>
<path transform="translate(0,0)" fill="rgb(170,97,237)" d="M 1158.21 956.142 C 1170.96 955.277 1208.38 971.533 1221.22 976.348 L 1300.66 1005.79 C 1314.82 1011.08 1347.88 1021.32 1358.98 1027.21 L 1358.96 1131.61 C 1351.15 1129.23 1348.01 1128.19 1340.72 1124.64 C 1328.19 1118.18 1309.45 1110.87 1295.77 1104.54 L 1189.78 1054.48 C 1175.31 1047.57 1155.06 1040.42 1142.99 1031.32 C 1137.44 1018.52 1134.27 1008.24 1130.19 994.994 C 1135.65 984.704 1149.25 962.981 1158.21 956.142 z"/>
<path transform="translate(0,0)" fill="rgb(217,252,33)" d="M 929.891 697.106 C 933.415 701.255 987.829 853.134 991.416 867.973 C 988.121 877.444 983.757 891.843 978.683 900.093 C 970.552 901.039 961.918 900.877 953.696 900.92 C 944.979 895.137 916.819 867.098 907.855 858.5 C 873.499 825.075 835.855 793.531 802.488 759.036 C 809.745 754.746 816.633 751.183 824.19 747.487 C 859.251 730.334 894.837 714.266 929.891 697.106 z"/>
<path transform="translate(0,0)" fill="rgb(170,97,237)" d="M 1110.16 1099.84 C 1123.65 1111.16 1149.81 1148.87 1162.3 1165.05 C 1194.25 1206.61 1226.76 1247.72 1259.84 1288.38 C 1251.48 1291.5 1227.27 1304.36 1217.49 1308.99 C 1197.89 1318.85 1176.66 1327.08 1157.65 1337.23 C 1155.39 1332.63 1153.46 1327.87 1151.88 1323 C 1146.75 1306.93 1095.56 1137.92 1095.96 1133.91 C 1096.01 1133.49 1096.08 1133.07 1096.14 1132.65 C 1097.71 1120.54 1103.7 1109.98 1110.16 1099.84 z"/>
<path transform="translate(0,0)" fill="rgb(52,67,5)" d="M 610.556 1129.64 C 623.999 1126.51 656.267 1122.22 668.68 1127.04 L 665.091 1127.66 L 666.411 1129.62 C 672.305 1132.47 672.07 1131.21 677.322 1132.79 C 680.128 1132.45 681.221 1131.78 683.209 1132.87 L 681.579 1134.05 C 680.416 1149.09 682.488 1149.55 676.391 1163.21 L 675.329 1163.97 L 674.675 1162.47 L 673.463 1162.87 C 672.182 1168.71 671.405 1178.86 663.113 1180.08 L 660.586 1183.95 L 661.078 1186.11 C 663.331 1185.49 665.241 1183.01 667.15 1181.13 C 665.741 1187.79 655.014 1189.86 652.491 1193.33 C 641.596 1208.3 640.585 1208.2 621.507 1207.91 C 607.111 1207.69 591.451 1203.29 580.684 1192.6 C 574.905 1186.86 577.832 1178.9 580.245 1172.21 C 577.816 1169.67 577.397 1169.53 575.958 1166.25 C 575.639 1163.01 574.84 1158.76 577.956 1156.93 C 580.675 1158.19 580.915 1158.53 583.832 1158.81 L 584.868 1157.62 C 584.445 1155.54 584.117 1154.33 583.552 1152.31 C 588.584 1146.39 609.094 1151.02 616.395 1145.68 C 617.825 1144.64 621.638 1141.62 621.825 1139.97 C 616.236 1141.56 614.086 1142.12 608.128 1142.11 C 604.936 1143.8 583.98 1143 579.085 1142.94 C 587.22 1141.52 593.858 1139.88 601.884 1137.83 C 604.719 1135.55 607.89 1132.24 610.556 1129.64 z"/>
<path transform="translate(0,0)" fill="rgb(217,252,33)" d="M 677.322 1132.79 C 680.128 1132.45 681.221 1131.78 683.209 1132.87 L 681.579 1134.05 C 679.537 1136.22 674.294 1142.1 672.329 1143.8 L 668.551 1147.32 L 666.163 1148.56 C 651.84 1163.23 635.523 1178.25 620.503 1192.35 C 615.398 1189.16 612.932 1188.55 607.079 1187.25 C 609.146 1186.85 609.574 1186.56 611.557 1185.79 C 607.379 1181.89 605.315 1182.93 602.209 1180.3 C 600.532 1177.43 599.165 1175.45 598.231 1172.22 C 595.992 1169.16 594.573 1167.83 594.089 1164.07 L 594.543 1161.46 C 592.854 1159.32 592.284 1159.97 588.573 1159.46 L 591.379 1158.16 C 602.476 1155.38 613.536 1152.45 624.558 1149.39 C 630.51 1147.06 636.819 1145.33 642.958 1143.49 L 652.647 1140.25 C 655.647 1139.71 665.851 1136.33 669.289 1135.28 L 669.983 1135.19 C 671.897 1134.72 675.322 1133.45 677.322 1132.79 z"/>
<path transform="translate(0,0)" fill="rgb(215,247,91)" d="M 677.322 1132.79 C 680.128 1132.45 681.221 1131.78 683.209 1132.87 L 681.579 1134.05 C 679.537 1136.22 674.294 1142.1 672.329 1143.8 L 668.551 1147.32 L 666.163 1148.56 C 661.538 1151.23 651.676 1155.34 649.199 1148.36 C 650.181 1144.26 650.461 1143.94 652.647 1140.25 C 655.647 1139.71 665.851 1136.33 669.289 1135.28 L 669.983 1135.19 C 671.897 1134.72 675.322 1133.45 677.322 1132.79 z"/>
<path transform="translate(0,0)" fill="rgb(24,33,4)" d="M 610.556 1129.64 C 623.999 1126.51 656.267 1122.22 668.68 1127.04 L 665.091 1127.66 L 666.411 1129.62 C 672.305 1132.47 672.07 1131.21 677.322 1132.79 C 675.322 1133.45 671.897 1134.72 669.983 1135.19 L 669.289 1135.28 C 657.273 1134.16 643.324 1132.25 631.836 1135.23 C 623.026 1138.21 617.146 1140.07 608.128 1142.11 C 604.936 1143.8 583.98 1143 579.085 1142.94 C 587.22 1141.52 593.858 1139.88 601.884 1137.83 C 604.719 1135.55 607.89 1132.24 610.556 1129.64 z"/>
<path transform="translate(0,0)" fill="rgb(32,44,2)" d="M 631.836 1135.23 C 642.622 1128.03 660.531 1123.67 669.983 1135.19 L 669.289 1135.28 C 657.273 1134.16 643.324 1132.25 631.836 1135.23 z"/>
<path transform="translate(0,0)" fill="rgb(24,33,4)" d="M 681.579 1134.05 C 680.416 1149.09 682.488 1149.55 676.391 1163.21 L 675.329 1163.97 L 674.675 1162.47 L 673.463 1162.87 C 672.182 1168.71 671.405 1178.86 663.113 1180.08 C 661.006 1181.78 658.937 1183.52 656.907 1185.31 C 654.968 1184.78 655.736 1185.28 654.507 1184 L 651.395 1184.56 L 650.152 1183.58 C 651.951 1176.86 656.697 1176.49 661.916 1173.36 C 665.222 1168.54 666.759 1167.11 670.849 1163.07 C 673.468 1155.27 673.182 1151.7 672.329 1143.8 C 674.294 1142.1 679.537 1136.22 681.579 1134.05 z"/>
<path transform="translate(0,0)" fill="rgb(32,44,2)" d="M 661.916 1173.36 C 665.222 1168.54 666.759 1167.11 670.849 1163.07 C 666.891 1173.88 662.719 1175.83 654.507 1184 L 651.395 1184.56 L 650.152 1183.58 C 651.951 1176.86 656.697 1176.49 661.916 1173.36 z"/>
<path transform="translate(0,0)" fill="rgb(210,240,65)" d="M 594.089 1164.07 C 594.573 1167.83 595.992 1169.16 598.231 1172.22 C 599.165 1175.45 600.532 1177.43 602.209 1180.3 C 605.315 1182.93 607.379 1181.89 611.557 1185.79 C 609.574 1186.56 609.146 1186.85 607.079 1187.25 C 603.644 1190.32 604.715 1188.89 603.466 1193.82 L 593.017 1182.25 C 591.797 1181.29 588.081 1177.23 586.804 1175.89 L 589.112 1174.08 C 590.846 1169.33 591.21 1168.16 594.089 1164.07 z"/>
<path transform="translate(0,0)" fill="rgb(72,95,9)" d="M 621.094 1146.23 C 628.694 1142.61 634.972 1139.6 642.958 1143.49 C 636.819 1145.33 630.51 1147.06 624.558 1149.39 C 613.536 1152.45 602.476 1155.38 591.379 1158.16 C 596.545 1149.46 609.686 1149.49 621.094 1146.23 z"/>
<path transform="translate(0,0)" fill="rgb(215,247,91)" d="M 588.573 1159.46 C 592.284 1159.97 592.854 1159.32 594.543 1161.46 L 594.089 1164.07 C 591.21 1168.16 590.846 1169.33 589.112 1174.08 L 586.804 1175.89 C 583.673 1172.81 580.207 1168.94 577.141 1165.7 L 577.48 1164.35 C 579.858 1161.52 584.813 1160.61 588.573 1159.46 z"/>
<path transform="translate(0,0)" fill="rgb(42,56,4)" d="M 668.551 1147.32 L 672.329 1143.8 C 673.182 1151.7 673.468 1155.27 670.849 1163.07 C 666.759 1167.11 665.222 1168.54 661.916 1173.36 C 658.949 1174.09 658.853 1174.42 656.001 1173.61 C 656.097 1169.08 665.207 1162.1 667.303 1157.51 C 668.105 1155.76 668.417 1149.46 668.551 1147.32 z"/>
<path transform="translate(0,0)" fill="rgb(215,247,91)" d="M 607.079 1187.25 C 612.932 1188.55 615.398 1189.16 620.503 1192.35 C 617.394 1195.35 614.106 1198.68 610.798 1201.41 L 603.466 1193.82 C 604.715 1188.89 603.644 1190.32 607.079 1187.25 z"/>
<path transform="translate(0,0)" fill="rgb(160,103,223)" d="M 1047.51 1038.01 C 1053.02 1054.43 1057.17 1070.46 1063.51 1086.65 C 1070.65 1093.98 1075.22 1111.39 1076.24 1121.53 C 1076.51 1124.26 1076.26 1124.89 1076.95 1127.91 C 1078.71 1134.16 1080.19 1138.79 1082.43 1144.88 C 1074.6 1140.21 1067.64 1135.71 1060.05 1130.66 C 1057.97 1133.97 1057.47 1134.83 1056.02 1138.43 C 1052.7 1136.31 1048.77 1133.94 1045.68 1131.58 C 1040.28 1133.94 1030.72 1137.78 1025.82 1140.4 C 1026.19 1139.35 1026.37 1138.24 1026.61 1137.14 C 1024.49 1135.12 1020.37 1134.56 1017.31 1133.82 C 1018.25 1129.15 1020.41 1122.86 1021.87 1118.16 C 1022.15 1115.43 1022.91 1114.45 1024.16 1111.98 C 1028.52 1103.6 1035.43 1076.41 1038.3 1066.38 C 1041.21 1056.19 1043.85 1048.22 1047.51 1038.01 z"/>
<path transform="translate(0,0)" fill="rgb(18,10,45)" d="M 1021.87 1118.16 C 1022.15 1115.43 1022.91 1114.45 1024.16 1111.98 C 1035.09 1118.62 1038.44 1121.35 1050.84 1123.9 L 1051.77 1126.31 C 1054.83 1127.38 1057.3 1128.04 1059.99 1129.85 L 1060.05 1130.66 C 1057.97 1133.97 1057.47 1134.83 1056.02 1138.43 C 1052.7 1136.31 1048.77 1133.94 1045.68 1131.58 C 1040.28 1133.94 1030.72 1137.78 1025.82 1140.4 C 1026.19 1139.35 1026.37 1138.24 1026.61 1137.14 C 1024.49 1135.12 1020.37 1134.56 1017.31 1133.82 C 1018.25 1129.15 1020.41 1122.86 1021.87 1118.16 z"/>
<path transform="translate(0,0)" fill="rgb(160,103,223)" d="M 1021.87 1118.16 L 1037.29 1127.22 C 1031.08 1129.39 1023.56 1132.24 1017.31 1133.82 C 1018.25 1129.15 1020.41 1122.86 1021.87 1118.16 z"/>
<path transform="translate(0,0)" fill="rgb(18,10,45)" d="M 1063.51 1086.65 C 1070.65 1093.98 1075.22 1111.39 1076.24 1121.53 C 1076.51 1124.26 1076.26 1124.89 1076.95 1127.91 C 1078.71 1134.16 1080.19 1138.79 1082.43 1144.88 C 1074.6 1140.21 1067.64 1135.71 1060.05 1130.66 L 1059.99 1129.85 C 1057.3 1128.04 1054.83 1127.38 1051.77 1126.31 L 1050.84 1123.9 C 1057.09 1122.53 1067.2 1122.97 1073.93 1123.02 C 1071.06 1111.06 1066.57 1098.97 1063.51 1086.65 z"/>
<path transform="translate(0,0)" fill="rgb(160,103,223)" d="M 1059.99 1129.85 C 1064.4 1127.86 1071.92 1128.08 1076.95 1127.91 C 1078.71 1134.16 1080.19 1138.79 1082.43 1144.88 C 1074.6 1140.21 1067.64 1135.71 1060.05 1130.66 L 1059.99 1129.85 z"/>
<path transform="translate(0,0)" fill="rgb(217,252,33)" d="M 1007.09 1023.21 L 1018.24 1017.87 C 1015.46 1022.67 1012.34 1028.35 1009.4 1032.96 C 1007.54 1036.21 1005.88 1039.16 1003.83 1042.3 C 994.704 1057.33 983.721 1077.3 973.956 1091.09 C 960.026 1085.59 944.649 1080.96 931.459 1075.41 C 924.082 1072.37 916.718 1070.61 908.363 1066.99 C 917.18 1061.76 926.021 1058.19 935.441 1054.31 C 955.219 1045.27 973.596 1036.48 993.835 1028.38 L 1007.09 1023.21 z"/>
<path transform="translate(0,0)" fill="rgb(215,247,91)" d="M 908.363 1066.99 C 917.18 1061.76 926.021 1058.19 935.441 1054.31 C 937.018 1058.18 937.712 1059.04 937.331 1063.03 C 934.397 1068.57 932.057 1069.1 931.459 1075.41 C 924.082 1072.37 916.718 1070.61 908.363 1066.99 z"/>
<path transform="translate(0,0)" fill="rgb(215,247,91)" d="M 1007.09 1023.21 L 1018.24 1017.87 C 1015.46 1022.67 1012.34 1028.35 1009.4 1032.96 C 1007.54 1036.21 1005.88 1039.16 1003.83 1042.3 C 1002.56 1041.74 1001.32 1041.1 1000.12 1040.4 C 995.791 1037.88 995.072 1033.04 993.835 1028.38 L 1007.09 1023.21 z"/>
<path transform="translate(0,0)" fill="rgb(223,238,151)" d="M 1007.09 1023.21 L 1018.24 1017.87 C 1015.46 1022.67 1012.34 1028.35 1009.4 1032.96 C 1007.78 1030.46 1007.53 1026.33 1007.09 1023.21 z"/>
<path transform="translate(0,0)" fill="rgb(160,103,223)" d="M 1342.29 831.273 C 1355.42 843.036 1370.12 855.685 1381.77 868.671 C 1353.97 879.719 1322.6 888.626 1297.03 899.101 L 1295.99 898.19 C 1304.06 883.188 1330.78 846.337 1342.29 831.273 z"/>
<path transform="translate(0,0)" fill="rgb(215,247,91)" d="M 1037.18 882.916 C 1040.77 882.857 1065.39 891.777 1067.06 894.385 C 1065.42 898.752 1049.45 905.17 1042.65 909.415 C 1048.72 911.305 1055.14 914.345 1061.03 916.933 C 1057.61 925.197 1054.47 934.521 1051 943.126 C 1048.35 949.67 1045.67 956.199 1042.95 962.713 C 1036.18 949.994 1020.74 906.554 1016 891.169 L 1037.18 882.916 z"/>
<path transform="translate(0,0)" fill="rgb(160,103,223)" d="M 1097.58 931.064 C 1112.11 935.759 1134.29 945.332 1149.39 951.193 C 1134.98 958.317 1116.26 963.975 1100.75 969.743 C 1088.69 973.824 1074.52 979.978 1062.15 984.58 C 1070.81 973.253 1088.4 947.465 1097.43 934.888 C 1097.48 933.613 1097.53 932.339 1097.58 931.064 z"/>
<path transform="translate(0,0)" fill="rgb(217,252,33)" d="M 955.922 978.141 C 970.463 981.976 984.937 986.793 999.271 991.396 L 1009.79 995.289 C 1013.28 996.094 1016.99 997.026 1020.48 997.63 L 1009.28 1004.81 C 1004.89 1007.43 1003.34 1007.92 998.438 1009.7 C 989.134 1014.13 979.734 1018.36 970.245 1022.39 L 965.676 1024.87 C 960.989 1014.14 955.277 1005.19 948.712 995.539 C 950.131 994.403 950.084 993.775 951.013 991.884 C 950.343 985.917 952.598 983.339 955.922 978.141 z"/>
<path transform="translate(0,0)" fill="rgb(215,247,91)" d="M 999.271 991.396 L 1009.79 995.289 C 1013.28 996.094 1016.99 997.026 1020.48 997.63 L 1009.28 1004.81 C 1004.89 1007.43 1003.34 1007.92 998.438 1009.7 C 1001.02 1002.77 1000.33 998.503 999.271 991.396 z"/>
<path transform="translate(0,0)" fill="rgb(223,238,151)" d="M 1009.79 995.289 C 1013.28 996.094 1016.99 997.026 1020.48 997.63 L 1009.28 1004.81 C 1007.5 1001.22 1007.03 998.337 1009.79 995.289 z"/>
<path transform="translate(0,0)" fill="rgb(24,33,4)" d="M 951.013 991.884 C 958.772 1000.66 963.914 1013.19 970.245 1022.39 L 965.676 1024.87 C 960.989 1014.14 955.277 1005.19 948.712 995.539 C 950.131 994.403 950.084 993.775 951.013 991.884 z"/>
<path transform="translate(0,0)" fill="rgb(160,103,223)" d="M 790.712 1161.24 L 791.273 1162.01 C 781.381 1171.22 770.863 1179.88 761.062 1189.16 C 748.231 1201.3 735.91 1214.04 723.225 1226.36 L 718.142 1218.98 C 713.902 1212.24 711.13 1206.17 707.693 1198.97 C 724.953 1190.16 773.46 1166.58 790.712 1161.24 z"/>
<path transform="translate(0,0)" fill="rgb(215,247,91)" d="M 995.535 879.164 C 997.547 885.697 998.987 890.692 1001.82 896.925 C 1002.34 899.064 1002.44 899.829 1003.26 901.858 C 1008.07 915.838 1013.21 929.706 1018.66 943.451 C 1013.07 949.075 1011.51 948.588 1007.28 952.2 C 1003.91 949.715 975.614 923.162 973.514 920.517 C 976.674 913.748 978.437 911.261 983.129 905.867 C 984.344 904.425 984.944 904.254 986.565 903.28 C 986.251 901.999 986.109 901.213 985.887 899.927 C 988.801 893.156 992.372 885.881 995.535 879.164 z"/>
<path transform="translate(0,0)" fill="rgb(223,238,151)" d="M 995.535 879.164 C 997.547 885.697 998.987 890.692 1001.82 896.925 C 995.49 898.636 992.337 899.08 985.887 899.927 C 988.801 893.156 992.372 885.881 995.535 879.164 z"/>
<path transform="translate(0,0)" fill="rgb(13,15,13)" d="M 1001.82 896.925 C 1002.34 899.064 1002.44 899.829 1003.26 901.858 C 997.558 903.296 988.87 905.658 983.129 905.867 C 984.344 904.425 984.944 904.254 986.565 903.28 C 986.251 901.999 986.109 901.213 985.887 899.927 C 992.337 899.08 995.49 898.636 1001.82 896.925 z"/>
<path transform="translate(0,0)" fill="rgb(160,103,223)" d="M 1029.87 1033.88 C 1030.16 1039.45 1006.22 1121.74 1002.99 1132.37 L 986.701 1126.38 L 977.637 1122.41 C 984.053 1107.42 998.971 1086.84 1007.36 1071.93 C 1013.8 1060.47 1022.38 1043.92 1029.87 1033.88 z"/>
<path transform="translate(0,0)" fill="rgb(160,103,223)" d="M 1064.36 997.084 C 1083.68 990.134 1097.36 984.219 1115.99 975.941 C 1117.25 980.573 1119.66 986.421 1121.4 991.022 L 1118.27 1000.69 C 1122.26 1003.3 1121.8 1002.18 1123.53 1005.9 C 1125.37 1012.73 1129.87 1021.48 1132.99 1028.09 C 1125.31 1023.44 1122.3 1022.36 1113.3 1019.95 C 1112.63 1019.65 1109.88 1017.78 1109.09 1017.27 C 1094.34 1010.4 1079.22 1003.76 1064.36 997.084 z"/>
<path transform="translate(0,0)" fill="rgb(160,103,223)" d="M 1123.53 1005.9 C 1125.37 1012.73 1129.87 1021.48 1132.99 1028.09 C 1125.31 1023.44 1122.3 1022.36 1113.3 1019.95 C 1117.86 1014.5 1119.78 1011.92 1123.53 1005.9 z"/>
<path transform="translate(0,0)" fill="rgb(18,10,45)" d="M 1118.27 1000.69 C 1122.26 1003.3 1121.8 1002.18 1123.53 1005.9 C 1119.78 1011.92 1117.86 1014.5 1113.3 1019.95 C 1112.63 1019.65 1109.88 1017.78 1109.09 1017.27 C 1114.02 1012.46 1115.96 1006.94 1118.27 1000.69 z"/>
<path transform="translate(0,0)" fill="rgb(160,103,223)" d="M 1076.45 1023.11 C 1096.19 1032.46 1117.14 1039.92 1136.86 1049.88 C 1133.79 1055.62 1128.31 1060.84 1124.02 1066.4 L 1114.53 1076.63 C 1109.49 1066.99 1077.24 1026.95 1076.45 1023.11 z"/>
<path transform="translate(0,0)" fill="rgb(215,247,91)" d="M 958.846 928.868 C 964.154 931.673 996.462 966.705 1004.94 974.258 C 1000.47 972.992 995.984 971.759 991.492 970.559 C 979.921 966.483 953.693 959.674 944.681 955.157 C 944.018 951.29 943.57 946.473 943.087 942.504 C 948.777 936.645 952.31 933.905 958.846 928.868 z"/>
<path transform="translate(0,0)" fill="rgb(215,247,91)" d="M 1099.63 848.125 C 1112.38 847.933 1125.42 848.501 1137.89 846.594 C 1129.83 860.581 1126.32 870.397 1110.87 876.334 L 1088.06 887.204 C 1090.61 877.081 1093.84 867.043 1096.91 857.058 L 1099.63 848.125 z"/>
<path transform="translate(0,0)" fill="rgb(223,238,151)" d="M 1096.91 857.058 C 1109.55 864.44 1100.92 868.944 1110.87 876.334 L 1088.06 887.204 C 1090.61 877.081 1093.84 867.043 1096.91 857.058 z"/>
<path transform="translate(0,0)" fill="rgb(215,247,91)" d="M 885.355 1076.3 C 900.07 1077.89 913.781 1080.71 928.018 1082.44 C 929.402 1090.98 930.869 1097.57 932.92 1106.01 C 916.487 1100.89 896.936 1092.44 882.066 1088.18 L 871.404 1084.7 C 877.124 1080.58 878.986 1079.36 885.355 1076.3 z"/>
<path transform="translate(0,0)" fill="rgb(223,238,151)" d="M 871.404 1084.7 C 877.124 1080.58 878.986 1079.36 885.355 1076.3 C 887.673 1082.92 886.515 1082.63 882.066 1088.18 L 871.404 1084.7 z"/>
<path transform="translate(0,0)" fill="rgb(215,247,91)" d="M 948.712 995.539 C 955.277 1005.19 960.989 1014.14 965.676 1024.87 C 958.762 1029.96 948.063 1035.24 940.258 1039.39 C 934.446 1041.93 928.065 1045.46 922.366 1048.45 C 926.709 1039.19 931.153 1029.97 935.698 1020.8 C 939.351 1012.79 944.564 1003.45 948.712 995.539 z"/>
<path transform="translate(0,0)" fill="rgb(223,238,151)" d="M 935.698 1020.8 C 944.881 1024.2 943.826 1031.3 940.258 1039.39 C 934.446 1041.93 928.065 1045.46 922.366 1048.45 C 926.709 1039.19 931.153 1029.97 935.698 1020.8 z"/>
<path transform="translate(0,0)" fill="rgb(160,103,223)" d="M 1066.11 1041.72 C 1072.33 1046.92 1099.14 1082.9 1103.64 1090.71 C 1101.07 1099.02 1100.03 1100.8 1095.33 1107.76 L 1090.26 1117.49 C 1083.11 1092.85 1073.99 1066.3 1066.11 1041.72 z"/>
<path transform="translate(0,0)" fill="rgb(223,238,151)" d="M 576.451 848.033 C 595.187 852.659 669.491 874.461 692.173 881.548 C 693.231 881.879 693.188 887.407 693.008 889.547 L 692.327 890.055 C 653.61 879.21 612.206 861.819 573.773 850.526 L 576.451 848.033 z"/>
<path transform="translate(0,0)" fill="rgb(160,103,223)" d="M 1149.75 891.736 C 1153.93 895.817 1155.94 927.654 1156.21 934.733 C 1149.87 932.646 1145.3 931.597 1138.76 930.143 C 1133.88 929.205 1130.33 927.679 1125.71 925.939 C 1131.09 915.341 1142.33 901.533 1149.75 891.736 z"/>
<path transform="translate(0,0)" fill="rgb(171,144,230)" d="M 1465.45 1185.44 L 1401.98 1159.3 C 1389.48 1154.21 1377.23 1148.7 1364.69 1143.74 C 1362.04 1142.69 1358.54 1137.77 1359.11 1134.86 C 1363.06 1133.51 1369.94 1139.02 1373.91 1140.78 C 1405.16 1154.64 1438.27 1168.84 1468.98 1183.54 L 1465.45 1185.44 z"/>
<path transform="translate(0,0)" fill="rgb(215,247,91)" d="M 938.319 1085.22 C 950.076 1088.43 959.671 1092.06 970.783 1096.92 L 963.256 1109.57 C 949.745 1132.22 941.418 1093.16 938.319 1085.22 z"/>
<path transform="translate(0,0)" fill="rgb(223,238,151)" d="M 887.792 573.683 C 892.957 582.437 902.173 606.875 906.205 616.684 C 910.661 627.522 937.583 687.206 935.589 693.621 C 933.727 694.264 932.528 694.585 930.633 695.089 C 918.051 655.222 899.93 613.857 887.792 573.683 z"/>
<path transform="translate(0,0)" fill="rgb(223,238,151)" d="M 1444.32 419.58 L 1445.29 421.457 C 1432.74 437.861 1370.44 540.357 1362.47 543.544 L 1361.26 542.148 C 1361.31 536.18 1383.26 507.208 1387.95 500.468 L 1444.32 419.58 z"/>
<path transform="translate(0,0)" fill="rgb(171,144,230)" d="M 1186.86 1452 C 1180.35 1431.3 1173.04 1411.61 1165.93 1390.38 C 1162.82 1381.08 1154.66 1356.13 1151.33 1345.1 C 1151.56 1344.33 1151.79 1343.56 1152.03 1342.79 L 1155.27 1341.38 C 1158.66 1343.63 1184.48 1440.54 1189.07 1452 L 1186.86 1452 z"/>
<path transform="translate(0,0)" fill="rgb(138,119,185)" d="M 697.324 1549.79 L 700.782 1552.7 C 698.56 1561.33 641.636 1643.6 633.001 1657.95 L 632.078 1656 C 636.153 1651.09 651.341 1625.56 655.028 1619.21 C 667.692 1597.37 682.933 1574.17 694.932 1552.15 L 697.324 1549.79 z"/>
<path transform="translate(0,0)" fill="rgb(223,238,151)" d="M 1081.22 861.844 L 1082.06 862.063 C 1082.7 864.528 1074.96 885.41 1073.53 889.64 C 1067.88 887.483 1062.26 885.265 1056.67 882.987 L 1047.91 878.839 C 1058.33 873.12 1070.51 867.275 1081.22 861.844 z"/>
<path transform="translate(0,0)" fill="rgb(227,235,199)" d="M 743.288 1141.45 C 771.691 1129.19 802.176 1112.08 830.32 1098.58 C 836.357 1095.68 856.245 1083.64 860.089 1082.42 C 863.064 1083.73 862.045 1082.69 863.81 1085.04 C 858.833 1090.11 756.566 1137.69 743.316 1143.22 L 743.288 1141.45 z"/>
<path transform="translate(0,0)" fill="rgb(223,238,151)" d="M 1111.24 816.547 C 1113.66 823.496 1118.53 834.883 1118.26 841.75 C 1116.23 844.263 1117.5 843.196 1113.25 843.897 C 1109.18 844.129 1107.6 844.141 1103.55 843.808 L 1102.96 842.62 C 1103.95 834.506 1107.98 824.071 1111.24 816.547 z"/>
<path transform="translate(0,0)" fill="rgb(227,235,199)" d="M 744.193 708.79 C 750.482 712.431 795.826 753.58 799.018 760.172 C 797.673 760.222 795.946 760.08 794.565 760.013 C 789.807 756.828 748.799 714.433 744.193 708.79 z"/>
<path transform="translate(0,0)" fill="rgb(223,238,151)" d="M 1018.66 943.451 C 1022.19 953.015 1025.15 962.411 1028.56 971.832 C 1021.05 965.304 1014.44 959.057 1007.28 952.2 C 1011.51 948.588 1013.07 949.075 1018.66 943.451 z"/>
<path transform="translate(0,0)" fill="rgb(67,64,109)" d="M 1213.35 932.59 C 1229.94 923.776 1250.55 916.352 1268.08 909.363 C 1276.9 905.849 1287.73 902.552 1295.99 898.19 L 1297.03 899.101 C 1284.35 906.53 1227.77 929.059 1213.35 932.59 z"/>
<path transform="translate(0,0)" fill="rgb(223,238,151)" d="M 940.945 909.634 C 945.507 914.019 949.481 917.226 952.524 922.751 C 952.711 926.414 953.192 924.71 950.449 927.846 C 947.921 929.769 947.07 930.744 943.923 931.339 L 942.078 930.066 C 940.105 925.773 940.903 915.014 940.945 909.634 z"/>
<path transform="translate(0,0)" fill="rgb(160,103,223)" d="M 1290.71 1327.6 C 1285.55 1320.55 1264.38 1295.41 1262.97 1289.4 C 1269.02 1291.29 1289.82 1321.17 1294.66 1327.99 L 1290.71 1327.6 z"/>
<path transform="translate(0,0)" fill="rgb(223,238,151)" d="M 1007.6 870.487 C 1012.3 872.007 1024.77 875.333 1027.23 879.184 L 1024.94 880.943 L 1014.28 886.031 L 1007.6 870.487 z"/>
<path transform="translate(0,0)" fill="rgb(87,85,98)" d="M 898.401 1491.64 C 897.528 1496.92 878.267 1553.35 876.57 1556.15 L 876.106 1555.17 C 878.376 1550.04 879.947 1545.15 881.322 1539.7 C 885.618 1522.68 891.348 1506.22 896.471 1489.45 L 898.401 1491.64 z"/>
<path transform="translate(0,0)" fill="rgb(223,238,151)" d="M 1073.33 922.23 C 1077.64 922.805 1080.69 922.349 1082.16 926.676 C 1080.87 930.824 1076.16 934.981 1072.99 938.354 L 1067.81 944.321 C 1069.52 936.32 1071.05 930.074 1073.33 922.23 z"/>
<path transform="translate(0,0)" fill="rgb(138,119,185)" d="M 1468.98 1183.54 C 1478.06 1187.3 1501.04 1199.17 1508.09 1201.1 L 1506.43 1202.19 C 1494.47 1196.69 1478.33 1190.96 1465.45 1185.44 L 1468.98 1183.54 z"/>
<path transform="translate(0,0)" fill="rgb(160,103,223)" d="M 1131.38 969.884 L 1133.54 969.842 L 1134.32 971.136 C 1132.89 975.386 1128.79 980.318 1126.02 984.102 C 1125.54 984.077 1125.06 984.051 1124.57 984.026 C 1123.44 980.042 1122.46 977.993 1123.03 974.013 C 1124.99 971.22 1127.92 970.919 1131.38 969.884 z"/>
<path transform="translate(0,0)" fill="rgb(138,119,185)" d="M 909.906 1456.35 C 908.695 1464.28 901.223 1482.14 898.401 1491.64 L 896.471 1489.45 C 899.844 1479.23 903.276 1469.09 906.236 1458.75 C 907.283 1457.6 908.444 1457.18 909.906 1456.35 z"/>
<path transform="translate(0,0)" fill="rgb(227,235,199)" d="M 1195.66 538.326 L 1197.53 540.52 C 1194.21 551.299 1189.96 562.564 1186.89 573.091 L 1183.45 575.946 L 1182.68 575.89 C 1186.44 569.81 1193.58 546.188 1195.66 538.326 z"/>
<path transform="translate(0,0)" fill="rgb(87,85,98)" d="M 1186.86 1452 L 1189.07 1452 C 1190.86 1456.87 1201.3 1487.09 1200.46 1490.07 C 1195.06 1477.7 1190.52 1464.98 1186.86 1452 z"/>
<path transform="translate(0,0)" fill="rgb(66,66,64)" d="M 1444.32 419.58 C 1450.31 409.697 1458.87 396.189 1466.49 387.692 C 1463.11 393.318 1449.01 417.374 1445.29 421.457 L 1444.32 419.58 z"/>
<path transform="translate(0,0)" fill="rgb(227,235,199)" d="M 551.874 842.843 L 553.842 841.375 L 576.451 848.033 L 573.773 850.526 C 567.175 847.9 558.704 845.219 551.874 842.843 z"/>
<path transform="translate(0,0)" fill="rgb(114,112,109)" d="M 551.874 842.843 C 546.079 841.284 526.394 834.08 521.275 831.464 C 532.388 834.644 542.883 837.64 553.842 841.375 L 551.874 842.843 z"/>
<path transform="translate(0,0)" fill="rgb(53,51,64)" d="M 1303.53 1339.74 C 1307.89 1344.53 1312.59 1351.91 1316.09 1357.44 C 1311.29 1353.61 1305.08 1346.21 1301.91 1340.96 L 1303.53 1339.74 z"/>
<path transform="translate(0,0)" fill="rgb(53,51,64)" d="M 632.078 1656 L 633.001 1657.95 C 631.113 1661.74 623.775 1671.59 620.962 1675.55 C 623.134 1669.2 628.325 1661.6 632.078 1656 z"/>
<path transform="translate(0,0)" fill="rgb(138,119,185)" d="M 1294.66 1327.99 C 1297.69 1331.76 1300.69 1336.31 1303.53 1339.74 L 1301.91 1340.96 L 1290.71 1327.6 L 1294.66 1327.99 z"/>
<path transform="translate(0,0)" fill="rgb(66,66,64)" d="M 743.316 1143.22 C 739.784 1145.57 733.041 1149.3 728.938 1150.13 L 728.652 1149.25 C 732.075 1145.68 738.595 1143.07 743.288 1141.45 L 743.316 1143.22 z"/>
<path transform="translate(0,0)" fill="rgb(149,145,136)" d="M 1200.84 523.431 L 1202.27 524.057 C 1200.48 529.647 1198.72 534.757 1197.53 540.52 L 1195.66 538.326 L 1200.84 523.431 z"/>
<path transform="translate(0,0)" fill="rgb(13,15,13)" d="M 1508.09 1201.1 C 1511.08 1202.21 1515.8 1203.47 1517.52 1205.78 C 1514.16 1206.39 1509.71 1203.75 1506.43 1202.19 L 1508.09 1201.1 z"/>
<path transform="translate(0,0)" fill="rgb(66,66,64)" d="M 1200.84 523.431 C 1201.67 520.608 1203.14 515.002 1204.19 512.506 L 1205.33 513.359 L 1205.58 511.791 L 1204 512.991 L 1205.57 510.651 L 1204.1 513.068 L 1205.65 512.392 C 1204.59 517.165 1203.96 519.477 1202.27 524.057 L 1200.84 523.431 z"/>
</svg>