<svg version="1.1" xmlns="http://www.w3.org/2000/svg" style="display: block;" viewBox="0 0 2048 2048" width="1024" height="1024" preserveAspectRatio="xMidYMid meet">
<defs>
	<linearGradient id="Gradient1" gradientUnits="userSpaceOnUse" x1="1097.58" y1="989.108" x2="1183.79" y2="1125.79">
		<stop class="stop0" offset="0" stop-opacity="1" stop-color="rgb(191,178,149)"/>
		<stop class="stop1" offset="1" stop-opacity="1" stop-color="rgb(166,103,198)"/>
	</linearGradient>
	<linearGradient id="Gradient2" gradientUnits="userSpaceOnUse" x1="924.232" y1="939.206" x2="1009.58" y2="1064.82">
		<stop class="stop0" offset="0" stop-opacity="1" stop-color="rgb(211,229,72)"/>
		<stop class="stop1" offset="1" stop-opacity="1" stop-color="rgb(189,173,149)"/>
	</linearGradient>
</defs>
<path transform="translate(0,0)" fill="rgb(212,245,30)" d="M 691.679 781.407 C 700.87 776.713 715.221 771.311 725.042 767.13 L 797.446 736.199 C 885.506 698.179 973.253 659.441 1060.68 619.987 C 1125.55 590.569 1190.25 560.772 1254.77 530.598 L 1315.01 502.338 C 1326.73 496.855 1342.72 488.906 1354.75 484.899 C 1355.51 514.753 1354.63 549.052 1354.62 579.189 L 1354.52 755.138 C 1340.1 764.162 1307.78 777.781 1291.04 785.552 L 1161.25 846.226 C 1132.08 859.469 1103.08 873.083 1074.26 887.066 C 1066.39 890.848 1043.63 901.179 1037.87 905.537 C 1075.95 919.585 1120.6 936.453 1158.92 949.009 C 1143.72 977.919 1107.56 996.926 1082.23 1015.95 C 1040.33 1047.42 991.682 1068.44 951.861 1102.51 C 950.592 1103.6 944.931 1105.58 942.365 1107.33 C 943.875 1111.18 948.236 1109.33 946.813 1112.55 C 938.029 1110.29 905.042 1097.06 895.185 1093.38 L 789.158 1053.99 L 726.875 1031 C 718.958 1028.08 701.382 1022.12 695.124 1018.52 L 693.318 1017.79 C 690.838 1012.53 691.795 800.936 691.679 781.407 z"/>
<path transform="translate(0,0)" fill="url(#Gradient2)" d="M 822.879 1009.53 L 824.151 1009.1 C 845.347 1001.81 991.241 914.181 993.932 904.406 C 987.754 899.655 915.411 900.875 908.369 896.465 C 913.633 894.789 947.159 896.409 953.439 897.999 C 956.017 898.919 971.483 899.838 975.441 900.175 C 996.176 901.941 1017.12 904.217 1037.87 905.537 C 1075.95 919.585 1120.6 936.453 1158.92 949.009 C 1143.72 977.919 1107.56 996.926 1082.23 1015.95 C 1040.33 1047.42 991.682 1068.44 951.861 1102.51 C 950.592 1103.6 944.931 1105.58 942.365 1107.33 C 943.875 1111.18 948.236 1109.33 946.813 1112.55 C 938.029 1110.29 905.042 1097.06 895.185 1093.38 L 789.158 1053.99 L 726.875 1031 C 718.958 1028.08 701.382 1022.12 695.124 1018.52 C 704.592 1014.43 777.354 1059.79 794.782 1036.74 C 801.137 1028.33 818.224 1016.98 822.879 1009.53 z"/>
<path transform="translate(0,0)" fill="rgb(161,169,47)" d="M 953.439 897.999 C 966.68 896.26 996.74 902.393 1010.9 901.075 C 1017.81 900.725 1038.89 890.117 1044.56 890.29 C 1063.36 890.861 1059.64 891.597 1076.73 883.285 L 1129.73 858.075 C 1136.6 854.816 1154.63 844.786 1161.25 846.226 C 1132.08 859.469 1103.08 873.083 1074.26 887.066 C 1066.39 890.848 1043.63 901.179 1037.87 905.537 C 1017.12 904.217 996.176 901.941 975.441 900.175 C 971.483 899.838 956.017 898.919 953.439 897.999 z"/>
<path transform="translate(0,0)" fill="rgb(146,56,224)" d="M 1158.92 949.009 L 1293.62 997.305 C 1308.69 1002.71 1339.86 1012.87 1352.84 1018.71 C 1353.03 1036.8 1355.58 1069.03 1354.24 1084.82 C 1357.16 1141.11 1354.3 1204.97 1355.32 1262.07 C 1286.96 1291.12 1216.59 1324.57 1148.76 1355.5 L 877.716 1477.63 C 834.417 1497.41 791.018 1516.98 747.522 1536.33 C 736.132 1541.37 702.186 1557.34 691.877 1560.44 L 691.835 1289.13 C 766.145 1258.35 839.442 1224.45 913.337 1192.61 C 918.674 1190.31 925.675 1187.01 931.118 1185.33 C 935.248 1182.98 939.704 1181.18 944.039 1179.25 C 971.432 1167.04 999.362 1155.94 1026.14 1142.39 L 973.029 1122.47 C 966.115 1119.9 952.875 1115.6 946.813 1112.55 C 948.236 1109.33 943.875 1111.18 942.365 1107.33 C 944.931 1105.58 950.592 1103.6 951.861 1102.51 C 991.682 1068.44 1040.33 1047.42 1082.23 1015.95 C 1107.56 996.926 1143.72 977.919 1158.92 949.009 z"/>
<path transform="translate(0,0)" fill="url(#Gradient1)" d="M 1158.92 949.009 L 1293.62 997.305 C 1308.69 1002.71 1339.86 1012.87 1352.84 1018.71 C 1353.03 1036.8 1355.58 1069.03 1354.24 1084.82 L 1354.13 1086.1 C 1353.2 1098.55 1354.5 1112.7 1353.25 1124.32 C 1352.52 1109.83 1353.28 1025.89 1349.7 1019.17 L 1347.41 1018.1 C 1345.68 1020.57 1347.59 1021.27 1346.83 1022.03 C 1334.16 1034.79 1315.65 1039.18 1298.59 1042.17 C 1291.97 1043.32 1279.13 1052.11 1272.24 1054.54 C 1229.86 1076.04 1189.65 1102.38 1149.92 1128.43 C 1133.43 1139.25 1115 1146.54 1100.56 1155.93 L 1100.69 1156.73 C 1101.23 1156.78 1136.99 1163.88 1136.87 1163.84 C 1158.66 1172.08 1200.9 1176.55 1220.83 1185.11 C 1213.02 1183.47 1177.88 1174.62 1173.07 1174.82 C 1165.57 1172.65 1156.94 1170.54 1149.3 1168.92 C 1108.39 1160.27 1067.25 1149.85 1026.14 1142.39 L 973.029 1122.47 C 966.115 1119.9 952.875 1115.6 946.813 1112.55 C 948.236 1109.33 943.875 1111.18 942.365 1107.33 C 944.931 1105.58 950.592 1103.6 951.861 1102.51 C 991.682 1068.44 1040.33 1047.42 1082.23 1015.95 C 1107.56 996.926 1143.72 977.919 1158.92 949.009 z"/>
<path transform="translate(0,0)" fill="rgb(99,40,171)" d="M 1026.14 1142.39 C 1067.25 1149.85 1108.39 1160.27 1149.3 1168.92 C 1156.94 1170.54 1165.57 1172.65 1173.07 1174.82 C 1162.63 1175.45 1120.94 1162.93 1108.04 1161.22 C 1100.78 1160.25 1090.36 1162.22 1082.58 1162.05 C 1068.79 1161.74 1054.27 1160.42 1040.72 1159.76 C 1031.05 1159.28 1017.52 1152.14 1010.9 1153.22 C 995.903 1155.69 943.195 1185.61 931.118 1185.33 C 935.248 1182.98 939.704 1181.18 944.039 1179.25 C 971.432 1167.04 999.362 1155.94 1026.14 1142.39 z"/>
</svg>